<svg width="14" height="10" viewBox="0 0 14 10" fill="none" xmlns="http://www.w3.org/2000/svg">
<path id="Subtract" fill-rule="evenodd" clip-rule="evenodd" d="M0.693359 5.7743H0.716297H0.749321H0.782486H0.815791H0.849235H0.882819H0.91654H0.950397H0.984392H1.01852H1.05279H1.08718H1.12172H1.15638H1.19117H1.2261H1.26116H1.29634H1.33165H1.3671H1.40266H1.43836H1.47418H1.51012H1.54619H1.58238H1.6187H1.65513H1.69169H1.72836H1.76516H1.80207H1.8391H1.87625H1.91351H1.95089H1.98838H2.02599H2.06371H2.10154H2.13948H2.17754H2.2157H2.25397H2.29236H2.33084H2.36944H2.40814H2.44695H2.48586H2.52487H2.56399H2.60321H2.64253H2.68195H2.72147H2.76109H2.80081H2.84062H2.88053H2.92054H2.96064H3.00084H3.04113H3.08151H3.12199H3.16256H3.20321H3.24396H3.28479H3.32572H3.36673H3.40782H3.44901H3.49027H3.53163H3.57306H3.61458H3.65618H3.69786H3.73962H3.78146H3.82338H3.86538H3.90745H3.9496H3.99183H4.03413H4.07651H4.11896L4.16148 5.77431H4.20407H4.24674H4.28947H4.33227H4.37515H4.41809H4.46109H4.50417H4.54731H4.59051H4.63378H4.67711H4.7205H4.76396H4.80748H4.85105H4.89469H4.93838H4.98213H5.02594H5.06981H5.11373H5.1577H5.20173H5.24582H5.28995H5.33414H5.37838H5.42266H5.467H5.51138H5.55582H5.6003H5.64482H5.68939H5.73401H5.77867H5.82337H5.86811H5.9129H5.95773H6.00259H6.0475H6.09244H6.13742H6.18244H6.2275H6.27259H6.31771H6.36287H6.40806H6.45328H6.49854H6.54382H6.58914H6.63448H6.67985H6.72525H6.77068H6.81613H6.86161H6.90711H6.95264H6.99818H7.04375H7.08935H7.13496H7.18059H7.22624H7.27191H7.3176H7.3633H7.40902H7.45475H7.5005H7.54626H7.59204H7.63782H7.68362H7.72943H7.77524H7.82107H7.86691H7.91275H7.9586H8.00445H8.05031H8.09617H8.14204H8.18791H8.23378H8.27965H8.32552H8.37139H8.41727H8.46313H8.509H8.55486H8.60072H8.64657H8.69242H8.73826H8.78409H8.82992H8.87573H8.92154H8.96733H9.01312H9.05889H9.10465H9.15039H9.19612H9.24184H9.28754H9.33322H9.37888H9.42453H9.47016H9.51577H9.56135H9.60692H9.65246H9.69798H9.74348H9.78895H9.8344H9.87982H9.92521H9.97058H10.0159H10.0612H10.1065H10.1517H10.197H10.2421H10.2873H10.3324H10.3775H10.4225H10.4676H10.5125H10.5575H10.6024H10.6472H10.692H10.7368H10.7816H10.8262H10.8709H10.9155H10.9601H11.0046H11.049H11.0935H11.1378H11.1822H11.2264H11.2707H11.3148H11.359H11.403H11.4471H11.491H11.5349H11.5788H11.6226H11.6251C11.5676 5.80241 11.5114 5.83118 11.4563 5.86057C10.4875 6.37719 9.90122 7.0746 9.54626 7.7712C9.19379 8.46292 9.0715 9.14926 9.0173 9.64949C9.00771 9.73798 8.99997 9.8245 8.99348 9.90454H9.77243C9.77731 9.8477 9.78306 9.78702 9.79016 9.72145C9.84014 9.26016 9.94966 8.66539 10.2486 8.07872C10.5451 7.49693 11.0298 6.91867 11.8436 6.48467C12.3249 6.228 12.9302 6.01709 13.6933 5.8892V4.91989C12.9302 4.79199 12.3249 4.58108 11.8436 4.32441C11.0298 3.89041 10.5451 3.31215 10.2486 2.73037C9.94966 2.14369 9.84014 1.54892 9.79016 1.08764C9.78306 1.02206 9.77731 0.961381 9.77243 0.904541H8.99348C8.99997 0.984579 9.00771 1.07111 9.0173 1.15959C9.0715 1.65982 9.19379 2.34616 9.54626 3.03788C9.90122 3.73448 10.4875 4.43189 11.4563 4.94851C11.5242 4.98475 11.5939 5.02002 11.6654 5.05429H11.6226H11.5788H11.5349H11.491H11.4471H11.403H11.359H11.3148H11.2707H11.2264H11.1822H11.1378H11.0935H11.049H11.0046H10.9601H10.9155H10.8709H10.8262H10.7816H10.7368H10.692H10.6472H10.6024H10.5575H10.5125H10.4676H10.4225H10.3775H10.3324H10.2873H10.2421H10.197H10.1517H10.1065H10.0612H10.0159H9.97058H9.92521H9.87982H9.8344H9.78895H9.74348H9.69798H9.65246H9.60692H9.56135H9.51577H9.47016H9.42453H9.37888H9.33322H9.28754H9.24184H9.19612H9.15039H9.10465H9.05889H9.01312H8.96733H8.92154H8.87573H8.82992H8.78409H8.73826H8.69242H8.64657H8.60072H8.55486H8.509H8.46313H8.41727L8.37139 5.05429H8.32552H8.27965H8.23378H8.18791H8.14204H8.09617H8.05031H8.00445H7.9586H7.91275H7.86691H7.82107H7.77524H7.72943H7.68362H7.63782H7.59204H7.54626H7.5005H7.45475H7.40902H7.3633H7.3176H7.27191H7.22624H7.18059H7.13496H7.08935H7.04375H6.99818H6.95264H6.90711H6.86161H6.81613H6.77068H6.72525H6.67985H6.63448H6.58914H6.54382H6.49854H6.45328H6.40806H6.36287H6.31771H6.27259H6.2275H6.18244H6.13742H6.09244H6.0475H6.00259H5.95773H5.9129H5.86811H5.82337H5.77867H5.73401H5.68939H5.64482H5.6003H5.55582H5.51138H5.467H5.42266H5.37838H5.33414H5.28995H5.24582H5.20173H5.1577H5.11373H5.06981H5.02594H4.98213H4.93838H4.89469H4.85105H4.80748H4.76396H4.7205H4.67711H4.63378H4.59051H4.54731H4.50417H4.46109H4.41809H4.37515H4.33227H4.28947H4.24674H4.20407H4.16148L4.11896 5.05429H4.07651H4.03413H3.99183H3.9496H3.90745H3.86538H3.82338H3.78146H3.73962H3.69786H3.65618H3.61458H3.57306H3.53163H3.49027H3.44901H3.40782H3.36673H3.32572H3.28479H3.24396H3.20321H3.16256H3.12199H3.08151H3.04113H3.00084H2.96064H2.92054H2.88053H2.84062H2.80081H2.76109H2.72147H2.68195H2.64253H2.60321H2.56399H2.52487H2.48586H2.44695H2.40814H2.36944H2.33084H2.29236H2.25397H2.2157H2.17754H2.13948H2.10154H2.06371H2.02599H1.98838H1.95089H1.91351H1.87625H1.8391H1.80207H1.76516H1.72836H1.69169H1.65513H1.6187H1.58238H1.54619H1.51012H1.47418H1.43836H1.40266H1.3671H1.33165H1.29634H1.26116H1.2261H1.19117H1.15638H1.12172H1.08718H1.05279H1.01852H0.984392H0.950397H0.91654H0.882819H0.849235H0.815791H0.782486H0.749321H0.716297H0.693359V5.7743Z" fill="#D5225B"/>
</svg>
