<svg width="14" height="10" viewBox="0 0 14 10" fill="none" xmlns="http://www.w3.org/2000/svg">
<path fill-rule="evenodd" clip-rule="evenodd" d="M0.693369 5.7743H0.716306H0.74933H0.782495H0.8158H0.849245H0.882828H0.916549H0.950407H0.984401H1.01853H1.0528H1.08719H1.12172H1.15639H1.19118H1.22611H1.26117H1.29635H1.33166H1.36711H1.40267H1.43837H1.47419H1.51013H1.5462H1.58239H1.61871H1.65514H1.6917H1.72837H1.76517H1.80208H1.83911H1.87626H1.91352H1.9509H1.98839H2.026H2.06372H2.10155H2.13949H2.17755H2.21571H2.25398H2.29236H2.33085H2.36945H2.40815H2.44696H2.48587H2.52488H2.564H2.60322H2.64254H2.68196H2.72148H2.7611H2.80082H2.84063H2.88054H2.92055H2.96065H3.00085H3.04114H3.08152H3.122H3.16256H3.20322H3.24397H3.2848H3.32573H3.36674H3.40783H3.44902H3.49028H3.53164H3.57307H3.61459H3.65619H3.69787H3.73963H3.78147H3.82339H3.86539H3.90746H3.94961H3.99184H4.03414H4.07652H4.11897L4.16149 5.77431H4.20408H4.24675H4.28948H4.33228H4.37516H4.4181H4.4611H4.50418H4.54732H4.59052H4.63379H4.67712H4.72051H4.76397H4.80749H4.85106H4.8947H4.93839H4.98214H5.02595H5.06982H5.11374H5.15771H5.20174H5.24583H5.28996H5.33415H5.37838H5.42267H5.46701H5.51139H5.55583H5.60031H5.64483H5.6894H5.73402H5.77868H5.82338H5.86812H5.91291H5.95774H6.0026H6.04751H6.09245H6.13743H6.18245H6.22751H6.2726H6.31772H6.36288H6.40807H6.45329H6.49855H6.54383H6.58915H6.63449H6.67986H6.72526H6.77069H6.81614H6.86162H6.90712H6.95265H6.99819H7.04376H7.08936H7.13497H7.1806H7.22625H7.27192H7.31761H7.36331H7.40903H7.45476H7.50051H7.54627H7.59204H7.63783H7.68363H7.72944H7.77525H7.82108H7.86691H7.91276H7.9586H8.00446H8.05032H8.09618H8.14205H8.18792H8.23379H8.27966H8.32553H8.3714H8.41728H8.46314H8.50901H8.55487H8.60073H8.64658H8.69243H8.73827H8.7841H8.82993H8.87574H8.92155H8.96734H9.01313H9.0589H9.10466H9.1504H9.19613H9.24185H9.28755H9.33323H9.37889H9.42454H9.47017H9.51578H9.56136H9.60693H9.65247H9.69799H9.74349H9.78896H9.83441H9.87983H9.92522H9.97059H10.0159H10.0612H10.1065H10.1518H10.197H10.2422H10.2873H10.3324H10.3775H10.4226H10.4676H10.5125H10.5575H10.6024H10.6472H10.692H10.7368H10.7816H10.8263H10.8709H10.9155H10.9601H11.0046H11.0491H11.0935H11.1379H11.1822H11.2265H11.2707H11.3149H11.359H11.4031H11.4471H11.491H11.5349H11.5788H11.6226H11.6251C11.5677 5.80241 11.5114 5.83118 11.4563 5.86057C10.4875 6.37719 9.90123 7.0746 9.54627 7.7712C9.1938 8.46292 9.07151 9.14926 9.01731 9.64949C9.00772 9.73798 8.99998 9.8245 8.99349 9.90454H9.77244C9.77732 9.8477 9.78306 9.78702 9.79017 9.72145C9.84015 9.26016 9.94967 8.66539 10.2486 8.07872C10.5451 7.49693 11.0298 6.91867 11.8436 6.48467C12.3249 6.228 12.9302 6.01709 13.6933 5.8892V4.91989C12.9302 4.79199 12.3249 4.58108 11.8436 4.32441C11.0298 3.89041 10.5451 3.31215 10.2486 2.73037C9.94967 2.14369 9.84015 1.54892 9.79017 1.08764C9.78306 1.02206 9.77732 0.961381 9.77244 0.904541H8.99349C8.99998 0.984579 9.00772 1.07111 9.01731 1.15959C9.07151 1.65982 9.1938 2.34616 9.54627 3.03788C9.90123 3.73448 10.4875 4.43189 11.4563 4.94851C11.5242 4.98475 11.5939 5.02002 11.6654 5.05429H11.6226H11.5788H11.5349H11.491H11.4471H11.4031H11.359H11.3149H11.2707H11.2265H11.1822H11.1379H11.0935H11.0491H11.0046H10.9601H10.9155H10.8709H10.8263H10.7816H10.7368H10.692H10.6472H10.6024H10.5575H10.5125H10.4676H10.4226H10.3775H10.3324H10.2873H10.2422H10.197H10.1518H10.1065H10.0612H10.0159H9.97059H9.92522H9.87983H9.83441H9.78896H9.74349H9.69799H9.65247H9.60693H9.56136H9.51578H9.47017H9.42454H9.37889H9.33323H9.28755H9.24185H9.19613H9.1504H9.10466H9.0589H9.01313H8.96734H8.92155H8.87574H8.82993H8.7841H8.73827H8.69243H8.64658H8.60073H8.55487H8.50901H8.46314H8.41728L8.3714 5.05429H8.32553H8.27966H8.23379H8.18792H8.14205H8.09618H8.05032H8.00446H7.9586H7.91276H7.86691H7.82108H7.77525H7.72944H7.68363H7.63783H7.59204H7.54627H7.50051H7.45476H7.40903H7.36331H7.31761H7.27192H7.22625H7.1806H7.13497H7.08936H7.04376H6.99819H6.95265H6.90712H6.86162H6.81614H6.77069H6.72526H6.67986H6.63449H6.58915H6.54383H6.49855H6.45329H6.40807H6.36288H6.31772H6.2726H6.22751H6.18245H6.13743H6.09245H6.04751H6.0026H5.95774H5.91291H5.86812H5.82338H5.77868H5.73402H5.6894H5.64483H5.60031H5.55583H5.51139H5.46701H5.42267H5.37838H5.33415H5.28996H5.24583H5.20174H5.15771H5.11374H5.06982H5.02595H4.98214H4.93839H4.8947H4.85106H4.80749H4.76397H4.72051H4.67712H4.63379H4.59052H4.54732H4.50418H4.4611H4.4181H4.37516H4.33228H4.28948H4.24675H4.20408H4.16149L4.11897 5.05429H4.07652H4.03414H3.99184H3.94961H3.90746H3.86539H3.82339H3.78147H3.73963H3.69787H3.65619H3.61459H3.57307H3.53164H3.49028H3.44902H3.40783H3.36674H3.32573H3.2848H3.24397H3.20322H3.16256H3.122H3.08152H3.04114H3.00085H2.96065H2.92055H2.88054H2.84063H2.80082H2.7611H2.72148H2.68196H2.64254H2.60322H2.564H2.52488H2.48587H2.44696H2.40815H2.36945H2.33085H2.29236H2.25398H2.21571H2.17755H2.13949H2.10155H2.06372H2.026H1.98839H1.9509H1.91352H1.87626H1.83911H1.80208H1.76517H1.72837H1.6917H1.65514H1.61871H1.58239H1.5462H1.51013H1.47419H1.43837H1.40267H1.36711H1.33166H1.29635H1.26117H1.22611H1.19118H1.15639H1.12172H1.08719H1.0528H1.01853H0.984401H0.950407H0.916549H0.882828H0.849245H0.8158H0.782495H0.74933H0.716306H0.693369V5.7743Z" fill="white"/>
</svg>
