<svg width="26" height="17" viewBox="0 0 26 17" fill="none" xmlns="http://www.w3.org/2000/svg">
<path fill-rule="evenodd" clip-rule="evenodd" d="M18.2027 1.41366C18.1878 1.2649 18.1757 1.11943 18.1656 0.984863H19.3796C19.3872 1.08043 19.3961 1.18245 19.4072 1.29269C19.4851 2.06823 19.6558 3.0682 20.1217 4.05455C20.5837 5.03268 21.3391 6.00488 22.6074 6.73455C23.3575 7.16608 24.3008 7.52068 25.4901 7.7357V9.36536C24.3008 9.58039 23.3575 9.93499 22.6074 10.3665C21.3391 11.0962 20.5837 12.0684 20.1217 13.0465C19.6558 14.0329 19.4851 15.0328 19.4072 15.8084C19.3961 15.9186 19.3872 16.0206 19.3796 16.1162H18.1656C18.1757 15.9816 18.1878 15.8362 18.2027 15.6874C18.2872 14.8464 18.4778 13.6925 19.0271 12.5295C19.5803 11.3583 20.494 10.1858 22.0037 9.31724C22.0896 9.26782 22.1773 9.21946 22.2669 9.1722H22.2629H22.1947H22.1263H22.0579H21.9894H21.9208H21.8521H21.7833H21.7145H21.6456H21.5766H21.5075H21.4383H21.3691H21.2998H21.2304H21.161H21.0915H21.0219H20.9522H20.8825H20.8127H20.7429H20.673H20.603H20.533H20.4629H20.3927H20.3225H20.2523H20.182H20.1116H20.0412H19.9707H19.9002H19.8296H19.759H19.6884H19.6177H19.5469H19.4761H19.4053H19.3344H19.2635H19.1926H19.1216H19.0506H18.9796H18.9085H18.8374H18.7662H18.6951H18.6239H18.5527H18.4814H18.4101H18.3389H18.2675H18.1962H18.1249H18.0535H17.9821H17.9107H17.8393H17.7679H17.6964H17.625H17.5535H17.482H17.4106H17.3391H17.2676H17.1961H17.1246H17.0531H16.9817H16.9102H16.8387H16.7672H16.6957H16.6243H16.5528H16.4813H16.4099H16.3385H16.267H16.1956H16.1243H16.0529H15.9815H15.9102H15.8389H15.7676H15.6963H15.6251H15.5538H15.4826H15.4115H15.3403H15.2692H15.1981H15.1271H15.056H14.9851H14.9141H14.8432H14.7723H14.7015H14.6307H14.5599H14.4892H14.4186H14.3479H14.2774H14.2068H14.1364H14.0659H13.9955H13.9252H13.855H13.7847H13.7146H13.6445H13.5744H13.5045H13.4345H13.3647H13.2949H13.2251H13.1555H13.0859H13.0163H12.9469H12.8775H12.8082H12.7389H12.6698H12.6007H12.5316H12.4627H12.3938H12.3251H12.2564H12.1877H12.1192H12.0508H11.9824H11.9141H11.8459H11.7778H11.7098H11.6419H11.5741H11.5064H11.4388H11.3712H11.3038H11.2365H11.1692H11.1021H11.0351H10.9682H10.9013H10.8346H10.768H10.7015H10.6352L10.5689 9.1722H10.5027H10.4367H10.3708H10.305H10.2393H10.1737H10.1083H10.0429H9.97772H9.91263H9.84768H9.78285H9.71814H9.65357H9.58912H9.52481H9.46063H9.39658H9.33267H9.26889H9.20525H9.14175H9.07839H9.01517H8.95209H8.88915H8.82636H8.76372H8.70122H8.63887H8.57667H8.51462H8.45272H8.39098H8.32939H8.26795H8.20667H8.14555H8.08459H8.02379H7.96314H7.90267H7.84235H7.7822H7.72222H7.66241H7.60276H7.54328H7.48398H7.42485H7.36589H7.3071H7.24849H7.19006H7.13181H7.07374H7.01584H6.95813H6.90061H6.84327H6.78611H6.72914H6.67236H6.61576H6.55936H6.50315H6.44713H6.39131H6.33568H6.28025H6.22502H6.16998H6.11515H6.06051H6.00608H5.95186H5.89784H5.84402H5.79041H5.73701H5.68382H5.63084H5.57808H5.52553H5.47319H5.42107H5.36916H5.31748H5.26601H5.21476H5.16374H5.11294H5.06236H5.01201H4.96189H4.91199H4.86232H4.81289H4.76368H4.71471H4.66597H4.61747H4.56921H4.52118H4.47339H4.42584H4.37853H4.33147H4.28464H4.23807H4.19174H4.14565H4.09982H4.05424H4.0089L3.96382 9.1722H3.91899H3.87442H3.8301H3.78604H3.74224H3.6987H3.65542H3.6124H3.56964H3.52715H3.48492H3.44296H3.40127H3.35985H3.3187H3.27782H3.23721H3.19687H3.15682H3.11703H3.07753H3.0383H2.99936H2.96069H2.92231H2.88421H2.8464H2.80887H2.77163H2.73468H2.69802H2.66165H2.62557H2.58979H2.5543H2.5191H2.48421H2.44961H2.41531H2.38131H2.34761H2.31422H2.28113H2.24834H2.21587H2.1837H2.15184H2.12029H2.08905H2.05812H2.02751H1.99721H1.96723H1.93757H1.90823H1.8792H1.8505H1.82212H1.79406H1.76633H1.73893H1.71185H1.6851H1.65868H1.63259H1.60683H1.58141H1.55632H1.53157H1.50715H1.48307H1.45933H1.43594H1.41288H1.39017H1.3678H1.34577H1.3241H1.30277H1.28179H1.26116H1.24088H1.22095H1.20138H1.18217H1.16331H1.1448H1.12666H1.10888H1.09145H1.07439H1.0577H1.04136H1.0254H1.0098H0.99457H0.979709H0.965219H0.951102H0.937358H0.923988H0.910994H0.898376H0.886137H0.874278H0.862798H0.851701H0.840986H0.830656H0.820711H0.811153H0.801982H0.793201H0.78481H0.77681H0.769203H0.76199H0.755171H0.748749H0.742725H0.737099H0.731873H0.727049H0.722626H0.718607H0.714993H0.711785H0.708984H5.16046V7.96167H0.708984H0.711785H0.714994H0.718608H0.722626H0.727049H0.731873H0.737099H0.742725H0.748749H0.755171H0.76199H0.769203H0.77681H0.78481H0.793201H0.801983H0.811153H0.820711H0.830656H0.840987H0.851701H0.862798H0.874278H0.886137H0.898376H0.910994H0.923988H0.937358H0.951102H0.96522H0.979709H0.99457H1.0098H1.0254H1.04136H1.0577H1.07439H1.09145H1.10888H1.12666H1.1448H1.16331H1.18217H1.20138H1.22095H1.24088H1.26116H1.28179H1.30277H1.3241H1.34577H1.3678H1.39017H1.41288H1.43594H1.45933H1.48307H1.50715H1.53157H1.55632H1.58141H1.60683H1.63259H1.65868H1.6851H1.71185H1.73893H1.76633H1.79406H1.82212H1.8505H1.8792H1.90823H1.93757H1.96723H1.99721H2.02751H2.05812H2.08905H2.12029H2.15184H2.1837H2.21587H2.24834H2.28113H2.31422H2.34761H2.38131H2.41531H2.44961H2.48421H2.5191H2.5543H2.58979H2.62557H2.66165H2.69802H2.73468H2.77163H2.80887H2.8464H2.88421H2.92231H2.96069H2.99936H3.0383H3.07753H3.11703H3.15682H3.19687H3.23721H3.27782H3.3187H3.35985H3.40127H3.44296H3.48492H3.52715H3.56964H3.6124H3.65542H3.6987H3.74224H3.78604H3.8301H3.87442H3.91899H3.96382L4.0089 7.96167H4.05424H4.09982H4.14565H4.19174H4.23807H4.28464H4.33147H4.37853H4.42584H4.47339H4.52118H4.56921H4.61747H4.66597H4.71471H4.76368H4.81289H4.86232H4.91199H4.96189H5.01201H5.06236H5.11294H5.16374H5.21476H5.26601H5.31748H5.36916H5.42107H5.47319H5.52553H5.57808H5.63084H5.68382H5.73701H5.79041H5.84402H5.89784H5.95186H6.00608H6.06051H6.11515H6.16998H6.22502H6.28025H6.33568H6.39131H6.44713H6.50315H6.55936H6.61576H6.67236H6.72914H6.78611H6.84327H6.90061H6.95813H7.01584H7.07374H7.13181H7.19006H7.24849H7.3071H7.36589H7.42485H7.48398H7.54328H7.60276H7.66241H7.72222H7.7822H7.84235H7.90267H7.96314H8.02379H8.08459H8.14555H8.20667H8.26795H8.32939H8.39098H8.45272H8.51462H8.57667H8.63887H8.70122H8.76372H8.82636H8.88915H8.95209H9.01517H9.07839H9.14175H9.20525H9.26889H9.33267H9.39658H9.46063H9.52481H9.58912H9.65357H9.71814H9.78285H9.84768H9.91263H9.97772H10.0429H10.1083H10.1737H10.2393H10.305H10.3708H10.4367H10.5027H10.5689L10.6352 7.96167H10.7015H10.768H10.8346H10.9013H10.9682H11.0351H11.1021H11.1692H11.2365H11.3038H11.3712H11.4388H11.5064H11.5741H11.6419H11.7098H11.7778H11.8459H11.9141H11.9824H12.0508H12.1192H12.1877H12.2564H12.3251H12.3938H12.4627H12.5316H12.6007H12.6698H12.7389H12.8082H12.8775H12.9469H13.0163H13.0859H13.1555H13.2251H13.2949H13.3647H13.4345H13.5045H13.5744H13.6445H13.7146H13.7847H13.855H13.9252H13.9955H14.0659H14.1364H14.2068H14.2774H14.3479H14.4186H14.4892H14.5599H14.6307H14.7015H14.7723H14.8432H14.9141H14.9851H15.056H15.1271H15.1981H15.2692H15.3403H15.4115H15.4826H15.5538H15.6251H15.6963H15.7676H15.8389H15.9102H15.9815H16.0529H16.1243H16.1956H16.267H16.3385H16.4099H16.4813H16.5528H16.6243H16.6957H16.7672H16.8387H16.9102H16.9817H17.0531H17.1246H17.1961L17.2676 7.96167H17.3391H17.4106H17.482H17.5535H17.625H17.6964H17.7679H17.8393H17.9107H17.9821H18.0535H18.1249H18.1962H18.2675H18.3389H18.4101H18.4814H18.5527H18.6239H18.6951H18.7662H18.8374H18.9085H18.9796H19.0506H19.1216H19.1926H19.2635H19.3344H19.4053H19.4761H19.5469H19.6177H19.6884H19.759H19.8296H19.9002H19.9707H20.0412H20.1116H20.182H20.2523H20.3225H20.3927H20.4629H20.533H20.603H20.673H20.7429H20.8127H20.8825H20.9522H21.0219H21.0915H21.161H21.2304H21.2998H21.3691H21.4383H21.5075H21.5766H21.6456H21.7145H21.7833H21.8521H21.9208H21.9894H22.0579H22.1263H22.1947H22.2629H22.3297C22.2182 7.90405 22.1096 7.84475 22.0037 7.78383C20.494 6.91526 19.5803 5.74273 19.0271 4.57156C18.4778 3.4086 18.2872 2.25469 18.2027 1.41366Z" fill="white"/>
</svg>
