<svg width="20" height="15" viewBox="0 0 20 15" fill="none" xmlns="http://www.w3.org/2000/svg">
<path id="Union" fill-rule="evenodd" clip-rule="evenodd" d="M14.4195 5.03445C13.2415 3.68932 12.5473 1.97418 12.3529 0.439292L13.9289 0.244873C14.0875 1.49657 14.6639 2.91634 15.6212 4.00949C16.5628 5.08458 17.8483 5.82178 19.4729 5.82814C19.48 5.82811 19.4871 5.8281 19.4941 5.8281V7.39556L19.4819 7.39563H19.4695C17.8969 7.40423 16.619 8.23718 15.6586 9.51662C14.6862 10.812 14.0941 12.5037 13.9306 14.0101L12.3513 13.8431C12.5407 12.0986 13.2565 9.8624 14.4195 8.3131C14.7417 7.88388 14.8223 7.75256 15.2264 7.39564L0.43457 7.39563L0.43457 5.82817L15.2264 5.82817C14.9354 5.58276 14.6663 5.31626 14.4195 5.03445Z" fill="#2B2004"/>
</svg>
