<svg width="46" height="46" viewBox="0 0 46 46" fill="none" xmlns="http://www.w3.org/2000/svg">
<circle cx="22.5324" cy="22.5786" r="22.5324" fill="#F1F5FF"/>
<path d="M28.3829 20.4781C28.2909 20.34 28.1527 20.271 27.9916 20.271H22.9966V13.1352C22.9966 12.9281 22.8585 12.7439 22.6282 12.6978C22.4211 12.6517 22.214 12.7439 22.1218 12.951L16.6664 24.2302C16.5974 24.3683 16.5974 24.5295 16.6894 24.6676C16.7814 24.8057 16.9196 24.8747 17.0807 24.8747L22.0757 24.8749V32.0106C22.0757 32.2178 22.2138 32.4019 22.444 32.448C22.467 32.448 22.5131 32.471 22.5361 32.471C22.7202 32.471 22.8813 32.379 22.9503 32.2178L28.4057 20.9386C28.4749 20.7774 28.4521 20.6162 28.3829 20.4781ZM22.9966 30.0079V24.4143C22.9966 24.1611 22.7894 23.954 22.5362 23.954H17.8174L22.0759 15.1378V20.7314C22.0759 20.9846 22.283 21.1917 22.5362 21.1917H27.255L22.9966 30.0079Z" fill="#FF4962" stroke="#FF4962"/>
</svg>
