<svg width="124" height="64" viewBox="0 0 124 64" fill="none" xmlns="http://www.w3.org/2000/svg">
<path d="M46.8873 23.0819L14.5013 23.1486C17.1871 18.4967 22.1421 15.6259 27.565 15.6164L54.3763 15.5502C54.3999 19.725 51.0621 23.0584 46.8873 23.0819Z" fill="#924FFF"/>
<path d="M32.6425 47.7546L0.222493 47.8802C2.94228 43.1694 7.89726 40.2986 13.2862 40.3479L40.1564 40.3158C40.1551 44.3977 36.7833 47.7899 32.6425 47.7546Z" fill="#924FFF"/>
<path d="M23.0826 35.4832L7.36193 35.5144C10.0477 30.8624 15.0027 27.9917 20.4257 27.9821L30.5716 27.9514C30.5363 32.0922 27.1986 35.4256 23.0826 35.4832Z" fill="#924FFF"/>
<path d="M58.3139 36.0807C58.5803 37.4532 59.2051 38.5185 60.1884 39.2765C61.1922 40.0344 62.4213 40.4134 63.8758 40.4134C65.9039 40.4134 67.3789 39.6657 68.3007 38.1702L70.5746 39.4608C69.0792 41.7757 66.8258 42.9332 63.8144 42.9332C61.3766 42.9332 59.3894 42.1752 57.853 40.6592C56.3371 39.1228 55.5791 37.1869 55.5791 34.8515C55.5791 32.5367 56.3268 30.611 57.8223 29.0746C59.3177 27.5381 61.2536 26.7699 63.63 26.7699C65.8834 26.7699 67.7169 27.5689 69.1304 29.1668C70.5644 30.7442 71.2814 32.6493 71.2814 34.8823C71.2814 35.2715 71.2507 35.671 71.1892 36.0807H58.3139ZM63.63 29.2897C62.196 29.2897 61.0078 29.6994 60.0655 30.5188C59.1231 31.3178 58.5393 32.3933 58.3139 33.7453H68.5773C68.3519 32.2908 67.7783 31.1846 66.8565 30.4266C65.9346 29.6687 64.8591 29.2897 63.63 29.2897Z" fill="#181823"/>
<path d="M81.5457 42.9332C79.2308 42.9332 77.3052 42.1649 75.7687 40.6285C74.2323 39.0716 73.4641 37.1459 73.4641 34.8515C73.4641 32.5571 74.2323 30.6417 75.7687 29.1053C77.3052 27.5484 79.2308 26.7699 81.5457 26.7699C83.0616 26.7699 84.4239 27.1387 85.6326 27.8762C86.8413 28.5932 87.7426 29.5662 88.3367 30.7954L86.0935 32.086C85.7043 31.2665 85.1 30.611 84.2805 30.1193C83.4816 29.6277 82.57 29.3819 81.5457 29.3819C80.0093 29.3819 78.7187 29.9042 77.6739 30.949C76.6496 31.9938 76.1375 33.2946 76.1375 34.8515C76.1375 36.388 76.6496 37.6786 77.6739 38.7233C78.7187 39.7681 80.0093 40.2905 81.5457 40.2905C82.57 40.2905 83.4918 40.0549 84.3113 39.5837C85.1307 39.0921 85.7555 38.4365 86.1857 37.6171L88.4596 38.9384C87.8041 40.1471 86.8617 41.1202 85.6326 41.8577C84.4035 42.5747 83.0412 42.9332 81.5457 42.9332Z" fill="#181823"/>
<path d="M98.7506 26.7699C100.553 26.7699 101.998 27.3435 103.083 28.4907C104.169 29.6174 104.712 31.1539 104.712 33.1V42.5337H102.039V33.2537C102.039 32.004 101.701 31.0412 101.024 30.3652C100.348 29.6687 99.4164 29.3204 98.2282 29.3204C96.8966 29.3204 95.8211 29.7404 95.0017 30.5803C94.1823 31.3997 93.7725 32.6698 93.7725 34.3906V42.5337H91.0992V21.0237H93.7725V29.3819C94.8583 27.6406 96.5176 26.7699 98.7506 26.7699Z" fill="#181823"/>
<path d="M121.411 40.5978C119.834 42.1547 117.919 42.9332 115.665 42.9332C113.412 42.9332 111.496 42.1547 109.919 40.5978C108.362 39.0409 107.584 37.1255 107.584 34.8515C107.584 32.5776 108.362 30.6622 109.919 29.1053C111.496 27.5484 113.412 26.7699 115.665 26.7699C117.919 26.7699 119.834 27.5484 121.411 29.1053C122.989 30.6622 123.778 32.5776 123.778 34.8515C123.778 37.1255 122.989 39.0409 121.411 40.5978ZM115.665 40.3212C117.202 40.3212 118.492 39.7988 119.537 38.7541C120.582 37.7093 121.104 36.4085 121.104 34.8515C121.104 33.2946 120.582 31.9938 119.537 30.949C118.492 29.9042 117.202 29.3819 115.665 29.3819C114.149 29.3819 112.869 29.9042 111.824 30.949C110.779 31.9938 110.257 33.2946 110.257 34.8515C110.257 36.4085 110.779 37.7093 111.824 38.7541C112.869 39.7988 114.149 40.3212 115.665 40.3212Z" fill="#181823"/>
</svg>
