<svg width="45" height="45" viewBox="0 0 45 45" fill="none" xmlns="http://www.w3.org/2000/svg">
<circle cx="22.5" cy="22.5" r="22.5" fill="#FE4358"/>
<path d="M30.8055 22.8159L28.7785 20.2586L29.8674 17.2373C29.987 16.9043 29.8958 16.537 29.6321 16.2888C29.3684 16.0397 28.9784 15.954 28.6244 16.0674L25.4142 17.0923L22.6971 15.1835C22.3961 14.9722 21.9972 14.9418 21.6659 15.1004C21.3336 15.26 21.1259 15.5829 21.1308 15.9344L21.1739 19.1255L18.405 20.9672C18.1001 21.1702 17.9444 21.518 18.0021 21.8648C18.0599 22.2117 18.3236 22.4978 18.6795 22.602L20.8596 23.2396L14 29.6956L15.3859 31L22.2464 24.5432L22.9237 26.5959C23.0345 26.9307 23.3384 27.178 23.707 27.2334C23.758 27.2408 23.8089 27.2445 23.8599 27.2445C24.1745 27.2445 24.4745 27.1015 24.6597 26.8543L26.6172 24.2499L30.0068 24.2905C30.3586 24.2712 30.7234 24.0996 30.8929 23.7869C31.0623 23.4738 31.029 23.0974 30.8055 22.8161L30.8055 22.8159ZM26.1271 22.398C25.7889 22.4054 25.5007 22.5401 25.3144 22.7883L24.2068 24.2624L23.6372 22.5373C23.5412 22.2475 23.3 22.0197 22.9923 21.9303L21.1593 21.3935L22.7266 20.351C22.9903 20.1757 23.1452 19.8897 23.1413 19.5862L23.1169 17.7798L24.6558 18.8601C24.9155 19.0419 25.2518 19.0925 25.5565 18.9948L27.3738 18.4145L26.7573 20.125C26.6544 20.4129 26.7073 20.7303 26.9004 20.9727L28.0482 22.4201L26.1271 22.398Z" fill="white"/>
</svg>
