<svg width="50" height="50" viewBox="0 0 50 50" fill="none" xmlns="http://www.w3.org/2000/svg">
<circle cx="25" cy="25" r="25" fill="#FE4358"/>
<path d="M16 30.8721H34V33.872H16V30.8721Z" fill="white"/>
<path d="M23.6647 18.3396L16.7724 25.232L16.2397 28.9445L19.9522 28.4195L26.8446 21.5271L23.6647 18.3396Z" fill="white"/>
<path d="M26.8498 16.2197L28.9711 18.341H28.9712C29.1119 18.4817 29.1908 18.6724 29.1908 18.8714C29.1908 19.0703 29.1119 19.261 28.9712 19.4016L27.9105 20.4623L24.7285 17.2803L25.7892 16.2196V16.2197C25.9299 16.079 26.1206 16 26.3196 16C26.5185 16 26.7092 16.079 26.8498 16.2197L26.8498 16.2197Z" fill="white"/>
</svg>
