<svg width="50" height="50" viewBox="0 0 50 50" fill="none" xmlns="http://www.w3.org/2000/svg">
<circle cx="25" cy="25" r="25" fill="#FE4358"/>
<path d="M31.4286 16H18.5714C17.6245 16.0011 16.7168 16.3781 16.0473 17.0483C15.3777 17.7184 15.0011 18.6269 15 19.5747V33.8733C15 34.0629 15.0753 34.2448 15.2092 34.3789C15.3431 34.5129 15.5249 34.5882 15.7143 34.5882H28.5714C28.7608 34.5882 28.9426 34.5129 29.0765 34.3789C29.2105 34.2448 29.2857 34.0629 29.2857 33.8733V19.5747C29.2857 18.8083 29.6942 18.1003 30.3571 17.7173C31.0201 17.3341 31.8371 17.3341 32.5 17.7173C33.1629 18.1003 33.5714 18.8083 33.5714 19.5747C33.5714 19.8302 33.4353 20.0662 33.2143 20.1938C32.9933 20.3215 32.721 20.3215 32.5 20.1938C32.279 20.0662 32.1429 19.8301 32.1429 19.5747C32.1429 19.3192 32.0067 19.0832 31.7857 18.9555C31.5647 18.8278 31.2924 18.8278 31.0714 18.9555C30.8504 19.0832 30.7143 19.3192 30.7143 19.5747C30.7143 20.341 31.1228 21.0491 31.7857 21.4321C32.4487 21.8152 33.2656 21.8152 33.9286 21.4321C34.5915 21.0491 35 20.341 35 19.5747C34.9989 18.6269 34.6223 17.7184 33.9527 17.0483C33.2832 16.3781 32.3755 16.0011 31.4286 16ZM17.8571 20.2896C17.8571 20.1 17.9324 19.9181 18.0663 19.784C18.2003 19.65 18.382 19.5747 18.5714 19.5747H22.1429C22.3323 19.5747 22.514 19.65 22.648 19.784C22.7819 19.9181 22.8571 20.1 22.8571 20.2896V24.5792C22.8571 24.7688 22.7819 24.9507 22.648 25.0847C22.514 25.2188 22.3323 25.2941 22.1429 25.2941H18.5714C18.382 25.2941 18.2003 25.2188 18.0663 25.0847C17.9324 24.9507 17.8571 24.7688 17.8571 24.5792V20.2896ZM25.7143 31.0136H18.5714C18.3162 31.0136 18.0804 30.8773 17.9528 30.6561C17.8253 30.4349 17.8253 30.1624 17.9528 29.9412C18.0804 29.72 18.3162 29.5837 18.5714 29.5837H25.7143C25.9695 29.5837 26.2053 29.72 26.3329 29.9412C26.4604 30.1624 26.4604 30.4349 26.3329 30.6561C26.2053 30.8773 25.9695 31.0136 25.7143 31.0136ZM25.7143 28.1538H18.5714C18.3162 28.1538 18.0804 28.0176 17.9528 27.7964C17.8253 27.5752 17.8253 27.3026 17.9528 27.0814C18.0804 26.8603 18.3162 26.724 18.5714 26.724H25.7143C25.9695 26.724 26.2053 26.8603 26.3329 27.0814C26.4604 27.3026 26.4604 27.5752 26.3329 27.7964C26.2053 28.0176 25.9695 28.1538 25.7143 28.1538ZM25.7143 24.5792H25C24.7447 24.5792 24.5089 24.4429 24.3814 24.2217C24.2538 24.0005 24.2538 23.728 24.3814 23.5068C24.5089 23.2856 24.7447 23.1493 25 23.1493H25.7143C25.9695 23.1493 26.2053 23.2856 26.3329 23.5068C26.4604 23.728 26.4604 24.0005 26.3329 24.2217C26.2053 24.4429 25.9695 24.5792 25.7143 24.5792ZM25.7143 21.7195H25C24.7447 21.7195 24.5089 21.5832 24.3814 21.362C24.2538 21.1408 24.2538 20.8682 24.3814 20.6471C24.5089 20.4259 24.7447 20.2896 25 20.2896H25.7143C25.9695 20.2896 26.2053 20.4259 26.3329 20.6471C26.4604 20.8682 26.4604 21.1408 26.3329 21.362C26.2053 21.5832 25.9695 21.7195 25.7143 21.7195Z" fill="white"/>
</svg>
