<svg width="104" height="54" viewBox="0 0 104 54" fill="none" xmlns="http://www.w3.org/2000/svg">
<path d="M39.2179 19.693L11.9996 19.749C14.2568 15.8394 18.4212 13.4267 22.9788 13.4186L45.512 13.363C45.5318 16.8717 42.7266 19.6732 39.2179 19.693Z" fill="#537FE7"/>
<path d="M27.2462 40.4282L-0.000736237 40.5337C2.28507 36.5745 6.44941 34.1619 10.9785 34.2033L33.5611 34.1763C33.56 37.6069 30.7263 40.4578 27.2462 40.4282Z" fill="#537FE7"/>
<path d="M19.2117 30.1151L5.99946 30.1413C8.25669 26.2317 12.421 23.819 16.9787 23.811L25.5057 23.7851C25.476 27.2652 22.6709 30.0667 19.2117 30.1151Z" fill="#537FE7"/>
<path d="M48.8212 30.6178C49.0451 31.7714 49.5702 32.6666 50.3966 33.3037C51.2402 33.9407 52.2732 34.2592 53.4956 34.2592C55.2001 34.2592 56.4397 33.6308 57.2145 32.3739L59.1256 33.4586C57.8687 35.4041 55.9749 36.3769 53.444 36.3769C51.3952 36.3769 49.7251 35.7399 48.4339 34.4658C47.1598 33.1745 46.5228 31.5475 46.5228 29.5848C46.5228 27.6393 47.1512 26.0209 48.408 24.7296C49.6649 23.4384 51.2919 22.7927 53.289 22.7927C55.1829 22.7927 56.7238 23.4642 57.9118 24.8071C59.117 26.1328 59.7196 27.734 59.7196 29.6106C59.7196 29.9378 59.6937 30.2735 59.6421 30.6178H48.8212ZM53.289 24.9104C52.0839 24.9104 51.0853 25.2547 50.2933 25.9434C49.5013 26.6149 49.0106 27.5188 48.8212 28.6551H57.4469C57.2575 27.4327 56.7755 26.503 56.0007 25.8659C55.2259 25.2289 54.3221 24.9104 53.289 24.9104Z" fill="white"/>
<path d="M68.346 36.3769C66.4005 36.3769 64.7821 35.7312 63.4909 34.44C62.1996 33.1315 61.554 31.5131 61.554 29.5848C61.554 27.6565 62.1996 26.0467 63.4909 24.7555C64.7821 23.447 66.4005 22.7927 68.346 22.7927C69.6201 22.7927 70.765 23.1026 71.7808 23.7224C72.7966 24.325 73.5542 25.1428 74.0535 26.1759L72.1682 27.2605C71.8411 26.5718 71.3332 26.0209 70.6445 25.6077C69.973 25.1945 69.2069 24.9879 68.346 24.9879C67.0548 24.9879 65.9701 25.4269 65.0921 26.305C64.2312 27.183 63.8008 28.2763 63.8008 29.5848C63.8008 30.8761 64.2312 31.9607 65.0921 32.8388C65.9701 33.7169 67.0548 34.1559 68.346 34.1559C69.2069 34.1559 69.9817 33.9579 70.6703 33.5619C71.359 33.1487 71.8841 32.5978 72.2457 31.9091L74.1568 33.0196C73.6058 34.0354 72.8138 34.8532 71.7808 35.473C70.7478 36.0756 69.6029 36.3769 68.346 36.3769Z" fill="white"/>
<path d="M82.8056 22.7927C84.3207 22.7927 85.5345 23.2748 86.447 24.2389C87.3595 25.1859 87.8158 26.4771 87.8158 28.1128V36.0412H85.569V28.2419C85.569 27.1917 85.2849 26.3825 84.7167 25.8143C84.1486 25.2289 83.3652 24.9362 82.3666 24.9362C81.2475 24.9362 80.3436 25.2892 79.6549 25.9951C78.9663 26.6838 78.6219 27.7512 78.6219 29.1974V36.0412H76.3751V17.9634H78.6219V24.9879C79.5344 23.5244 80.929 22.7927 82.8056 22.7927Z" fill="white"/>
<path d="M101.851 34.4142C100.525 35.7226 98.9152 36.3769 97.0213 36.3769C95.1274 36.3769 93.5177 35.7226 92.192 34.4142C90.8835 33.1057 90.2292 31.4959 90.2292 29.5848C90.2292 27.6737 90.8835 26.0639 92.192 24.7555C93.5177 23.447 95.1274 22.7927 97.0213 22.7927C98.9152 22.7927 100.525 23.447 101.851 24.7555C103.176 26.0639 103.839 27.6737 103.839 29.5848C103.839 31.4959 103.176 33.1057 101.851 34.4142ZM97.0213 34.1817C98.3126 34.1817 99.3972 33.7427 100.275 32.8646C101.153 31.9866 101.592 30.8933 101.592 29.5848C101.592 28.2763 101.153 27.183 100.275 26.305C99.3972 25.4269 98.3126 24.9879 97.0213 24.9879C95.7473 24.9879 94.6712 25.4269 93.7931 26.305C92.9151 27.183 92.476 28.2763 92.476 29.5848C92.476 30.8933 92.9151 31.9866 93.7931 32.8646C94.6712 33.7427 95.7473 34.1817 97.0213 34.1817Z" fill="white"/>
</svg>
