<svg width="124" height="64" viewBox="0 0 124 64" fill="none" xmlns="http://www.w3.org/2000/svg">
<path d="M46.6651 23.1163L14.2791 23.183C16.9649 18.531 21.9199 15.6603 27.3429 15.6507L54.1541 15.5846C54.1777 19.7594 50.84 23.0927 46.6651 23.1163Z" fill="#FFCC48"/>
<path d="M32.4208 47.7889L0.000813484 47.9144C2.7206 43.2036 7.67558 40.3329 13.0645 40.3822L39.9347 40.35C39.9334 44.4319 36.5616 47.8242 32.4208 47.7889Z" fill="#FFCC48"/>
<path d="M22.8602 35.5173L7.13951 35.5485C9.8253 30.8966 14.7803 28.0258 20.2032 28.0163L30.3492 27.9855C30.3139 32.1264 26.9762 35.4597 22.8602 35.5173Z" fill="#FFCC48"/>
<path d="M58.0913 36.1151C58.3576 37.4876 58.9824 38.5529 59.9657 39.3109C60.9695 40.0688 62.1987 40.4478 63.6532 40.4478C65.6812 40.4478 67.1562 39.7001 68.0781 38.2046L70.352 39.4952C68.8565 41.8101 66.6031 42.9676 63.5917 42.9676C61.1539 42.9676 59.1668 42.2096 57.6304 40.6937C56.1144 39.1572 55.3564 37.2213 55.3564 34.886C55.3564 32.5711 56.1042 30.6454 57.5996 29.109C59.0951 27.5726 61.031 26.8043 63.4073 26.8043C65.6608 26.8043 67.4942 27.6033 68.9077 29.2012C70.3417 30.7786 71.0587 32.6837 71.0587 34.9167C71.0587 35.3059 71.028 35.7054 70.9666 36.1151H58.0913ZM63.4073 29.3241C61.9733 29.3241 60.7852 29.7338 59.8428 30.5532C58.9005 31.3522 58.3166 32.4277 58.0913 33.7797H68.3546C68.1293 32.3252 67.5557 31.219 66.6338 30.461C65.712 29.7031 64.6365 29.3241 63.4073 29.3241Z" fill="white"/>
<path d="M81.323 42.9676C79.0082 42.9676 77.0825 42.1994 75.5461 40.6629C74.0096 39.106 73.2414 37.1804 73.2414 34.886C73.2414 32.5916 74.0096 30.6761 75.5461 29.1397C77.0825 27.5828 79.0082 26.8043 81.323 26.8043C82.839 26.8043 84.2013 27.1731 85.4099 27.9106C86.6186 28.6276 87.52 29.6006 88.1141 30.8298L85.8709 32.1204C85.4816 31.301 84.8773 30.6454 84.0579 30.1538C83.2589 29.6621 82.3473 29.4163 81.323 29.4163C79.7866 29.4163 78.496 29.9387 77.4512 30.9834C76.427 32.0282 75.9148 33.329 75.9148 34.886C75.9148 36.4224 76.427 37.713 77.4512 38.7578C78.496 39.8025 79.7866 40.3249 81.323 40.3249C82.3473 40.3249 83.2692 40.0893 84.0886 39.6182C84.908 39.1265 85.5329 38.471 85.9631 37.6515L88.237 38.9729C87.5814 40.1815 86.6391 41.1546 85.4099 41.8921C84.1808 42.6091 82.8185 42.9676 81.323 42.9676Z" fill="white"/>
<path d="M98.5279 26.8043C100.331 26.8043 101.775 27.3779 102.861 28.5251C103.946 29.6519 104.489 31.1883 104.489 33.1344V42.5681H101.816V33.2881C101.816 32.0384 101.478 31.0756 100.802 30.3996C100.126 29.7031 99.1937 29.3548 98.0055 29.3548C96.674 29.3548 95.5985 29.7748 94.779 30.6147C93.9596 31.4341 93.5499 32.7042 93.5499 34.425V42.5681H90.8765V21.0581H93.5499V29.4163C94.6356 27.675 96.295 26.8043 98.5279 26.8043Z" fill="white"/>
<path d="M121.189 40.6322C119.611 42.1891 117.696 42.9676 115.443 42.9676C113.189 42.9676 111.274 42.1891 109.696 40.6322C108.139 39.0753 107.361 37.1599 107.361 34.886C107.361 32.612 108.139 30.6966 109.696 29.1397C111.274 27.5828 113.189 26.8043 115.443 26.8043C117.696 26.8043 119.611 27.5828 121.189 29.1397C122.766 30.6966 123.555 32.612 123.555 34.886C123.555 37.1599 122.766 39.0753 121.189 40.6322ZM115.443 40.3556C116.979 40.3556 118.27 39.8333 119.314 38.7885C120.359 37.7437 120.882 36.4429 120.882 34.886C120.882 33.329 120.359 32.0282 119.314 30.9834C118.27 29.9387 116.979 29.4163 115.443 29.4163C113.927 29.4163 112.646 29.9387 111.601 30.9834C110.557 32.0282 110.034 33.329 110.034 34.886C110.034 36.4429 110.557 37.7437 111.601 38.7885C112.646 39.8333 113.927 40.3556 115.443 40.3556Z" fill="white"/>
</svg>
