<svg width="104" height="55" viewBox="0 0 104 55" fill="none" xmlns="http://www.w3.org/2000/svg">
<path d="M39.2179 19.8595L11.9995 19.9155C14.2568 16.0059 18.4211 13.5932 22.9787 13.5851L45.5119 13.5295C45.5317 17.0382 42.7266 19.8397 39.2179 19.8595Z" fill="#924FFF"/>
<path d="M27.246 40.5947L-0.000965118 40.7002C2.28484 36.741 6.44918 34.3284 10.9783 34.3698L33.5609 34.3428C33.5598 37.7734 30.7261 40.6243 27.246 40.5947Z" fill="#924FFF"/>
<path d="M19.2115 30.2816L5.9993 30.3078C8.25653 26.3982 12.4209 23.9855 16.9785 23.9775L25.5056 23.9517C25.4759 27.4318 22.6707 30.2332 19.2115 30.2816Z" fill="#924FFF"/>
<path d="M48.8212 30.7843C49.045 31.9379 49.5701 32.8331 50.3965 33.4702C51.2401 34.1072 52.2732 34.4257 53.4956 34.4257C55.2 34.4257 56.4397 33.7973 57.2144 32.5405L59.1255 33.6251C57.8687 35.5706 55.9748 36.5434 53.4439 36.5434C51.3951 36.5434 49.7251 35.9064 48.4338 34.6323C47.1597 33.341 46.5227 31.714 46.5227 29.7513C46.5227 27.8058 47.1511 26.1874 48.408 24.8961C49.6648 23.6049 51.2918 22.9592 53.289 22.9592C55.1828 22.9592 56.7237 23.6307 57.9117 24.9736C59.1169 26.2993 59.7195 27.9005 59.7195 29.7771C59.7195 30.1043 59.6937 30.44 59.642 30.7843H48.8212ZM53.289 25.0769C52.0838 25.0769 51.0852 25.4213 50.2932 26.1099C49.5012 26.7814 49.0106 27.6853 48.8212 28.8216H57.4468C57.2575 27.5992 56.7754 26.6695 56.0006 26.0325C55.2259 25.3954 54.322 25.0769 53.289 25.0769Z" fill="#5E5E5E"/>
<path d="M68.346 36.5434C66.4005 36.5434 64.7821 35.8978 63.4908 34.6065C62.1995 33.298 61.5539 31.6796 61.5539 29.7513C61.5539 27.823 62.1995 26.2132 63.4908 24.922C64.7821 23.6135 66.4005 22.9592 68.346 22.9592C69.62 22.9592 70.7649 23.2691 71.7807 23.8889C72.7965 24.4915 73.5541 25.3093 74.0534 26.3424L72.1681 27.427C71.841 26.7383 71.3331 26.1874 70.6444 25.7742C69.973 25.361 69.2068 25.1544 68.346 25.1544C67.0547 25.1544 65.97 25.5934 65.092 26.4715C64.2311 27.3495 63.8007 28.4428 63.8007 29.7513C63.8007 31.0426 64.2311 32.1272 65.092 33.0053C65.97 33.8834 67.0547 34.3224 68.346 34.3224C69.2068 34.3224 69.9816 34.1244 70.6703 33.7284C71.3589 33.3152 71.884 32.7643 72.2456 32.0756L74.1567 33.1861C73.6057 34.2019 72.8138 35.0197 71.7807 35.6395C70.7477 36.2421 69.6028 36.5434 68.346 36.5434Z" fill="#5E5E5E"/>
<path d="M82.8056 22.9592C84.3207 22.9592 85.5344 23.4413 86.4469 24.4055C87.3594 25.3524 87.8157 26.6437 87.8157 28.2793V36.2077H85.5689V28.4084C85.5689 27.3582 85.2848 26.549 84.7166 25.9808C84.1485 25.3954 83.3651 25.1027 82.3665 25.1027C81.2474 25.1027 80.3435 25.4557 79.6549 26.1616C78.9662 26.8503 78.6218 27.9177 78.6218 29.3639V36.2077H76.375V18.1299H78.6218V25.1544C79.5343 23.691 80.9289 22.9592 82.8056 22.9592Z" fill="#5E5E5E"/>
<path d="M101.851 34.5807C100.525 35.8891 98.9151 36.5434 97.0212 36.5434C95.1274 36.5434 93.5176 35.8891 92.1919 34.5807C90.8834 33.2722 90.2291 31.6624 90.2291 29.7513C90.2291 27.8402 90.8834 26.2304 92.1919 24.922C93.5176 23.6135 95.1274 22.9592 97.0212 22.9592C98.9151 22.9592 100.525 23.6135 101.851 24.922C103.176 26.2304 103.839 27.8402 103.839 29.7513C103.839 31.6624 103.176 33.2722 101.851 34.5807ZM97.0212 34.3482C98.3125 34.3482 99.3972 33.9092 100.275 33.0311C101.153 32.1531 101.592 31.0598 101.592 29.7513C101.592 28.4428 101.153 27.3495 100.275 26.4715C99.3972 25.5934 98.3125 25.1544 97.0212 25.1544C95.7472 25.1544 94.6711 25.5934 93.7931 26.4715C92.915 27.3495 92.476 28.4428 92.476 29.7513C92.476 31.0598 92.915 32.1531 93.7931 33.0311C94.6711 33.9092 95.7472 34.3482 97.0212 34.3482Z" fill="#5E5E5E"/>
</svg>
