<svg width="124" height="65" viewBox="0 0 124 65" fill="none" xmlns="http://www.w3.org/2000/svg">
<path d="M46.9148 23.7506L14.5287 23.8172C17.2145 19.1653 22.1695 16.2946 27.5925 16.285L54.4038 16.2188C54.4273 20.3936 51.0896 23.727 46.9148 23.7506Z" fill="#537FE7"/>
<path d="M32.6701 48.4232L0.250062 48.5488C2.96985 43.838 7.92482 40.9672 13.3138 41.0165L40.1839 40.9844C40.1826 45.0663 36.8109 48.4585 32.6701 48.4232Z" fill="#537FE7"/>
<path d="M23.1101 36.1518L7.38945 36.183C10.0752 31.531 15.0302 28.6603 20.4532 28.6507L30.5991 28.62C30.5638 32.7608 27.2261 36.0942 23.1101 36.1518Z" fill="#537FE7"/>
<path d="M58.3413 36.7493C58.6076 38.1218 59.2325 39.1871 60.2158 39.9451C61.2196 40.703 62.4487 41.082 63.9032 41.082C65.9313 41.082 67.4063 40.3343 68.3281 38.8388L70.602 40.1294C69.1066 42.4443 66.8531 43.6018 63.8417 43.6018C61.4039 43.6018 59.4168 42.8438 57.8804 41.3278C56.3645 39.7914 55.6065 37.8555 55.6065 35.5201C55.6065 33.2053 56.3542 31.2796 57.8497 29.7432C59.3451 28.2067 61.281 27.4385 63.6574 27.4385C65.9108 27.4385 67.7443 28.2375 69.1578 29.8354C70.5918 31.4128 71.3088 33.3179 71.3088 35.5509C71.3088 35.9401 71.2781 36.3396 71.2166 36.7493H58.3413ZM63.6574 29.9583C62.2234 29.9583 61.0352 30.368 60.0929 31.1874C59.1505 31.9864 58.5667 33.0619 58.3413 34.4139H68.6047C68.3793 32.9594 67.8057 31.8532 66.8839 31.0952C65.962 30.3373 64.8865 29.9583 63.6574 29.9583Z" fill="#181823"/>
<path d="M81.5731 43.6018C79.2582 43.6018 77.3325 42.8335 75.7961 41.2971C74.2597 39.7402 73.4915 37.8145 73.4915 35.5201C73.4915 33.2257 74.2597 31.3103 75.7961 29.7739C77.3325 28.217 79.2582 27.4385 81.5731 27.4385C83.089 27.4385 84.4513 27.8073 85.66 28.5448C86.8686 29.2618 87.77 30.2348 88.3641 31.464L86.1209 32.7546C85.7317 31.9351 85.1274 31.2796 84.3079 30.7879C83.509 30.2963 82.5974 30.0505 81.5731 30.0505C80.0367 30.0505 78.7461 30.5728 77.7013 31.6176C76.677 32.6624 76.1649 33.9632 76.1649 35.5201C76.1649 37.0566 76.677 38.3472 77.7013 39.3919C78.7461 40.4367 80.0367 40.9591 81.5731 40.9591C82.5974 40.9591 83.5192 40.7235 84.3387 40.2523C85.1581 39.7607 85.7829 39.1051 86.2131 38.2857L88.487 39.607C87.8315 40.8157 86.8891 41.7888 85.66 42.5263C84.4308 43.2433 83.0685 43.6018 81.5731 43.6018Z" fill="#181823"/>
<path d="M98.778 27.4385C100.581 27.4385 102.025 28.0121 103.111 29.1593C104.196 30.286 104.739 31.8225 104.739 33.7686V43.2023H102.066V33.9223C102.066 32.6726 101.728 31.7098 101.052 31.0338C100.376 30.3373 99.4437 29.989 98.2556 29.989C96.924 29.989 95.8485 30.409 95.0291 31.2489C94.2096 32.0683 93.7999 33.3384 93.7999 35.0592V43.2023H91.1265V21.6923H93.7999V30.0505C94.8857 28.3092 96.545 27.4385 98.778 27.4385Z" fill="#181823"/>
<path d="M121.439 41.2664C119.861 42.8233 117.946 43.6018 115.693 43.6018C113.439 43.6018 111.524 42.8233 109.946 41.2664C108.389 39.7095 107.611 37.7941 107.611 35.5201C107.611 33.2462 108.389 31.3308 109.946 29.7739C111.524 28.217 113.439 27.4385 115.693 27.4385C117.946 27.4385 119.861 28.217 121.439 29.7739C123.016 31.3308 123.805 33.2462 123.805 35.5201C123.805 37.7941 123.016 39.7095 121.439 41.2664ZM115.693 40.9898C117.229 40.9898 118.52 40.4674 119.564 39.4227C120.609 38.3779 121.132 37.0771 121.132 35.5201C121.132 33.9632 120.609 32.6624 119.564 31.6176C118.52 30.5728 117.229 30.0505 115.693 30.0505C114.177 30.0505 112.896 30.5728 111.852 31.6176C110.807 32.6624 110.284 33.9632 110.284 35.5201C110.284 37.0771 110.807 38.3779 111.852 39.4227C112.896 40.4674 114.177 40.9898 115.693 40.9898Z" fill="#181823"/>
</svg>
