<svg width="152" height="78" viewBox="0 0 152 78" fill="none" xmlns="http://www.w3.org/2000/svg">
<path d="M57.4029 28.0781L17.5658 28.1883C20.8736 22.4784 26.9711 18.9518 33.6418 18.9353L66.6215 18.8306C66.6468 23.9528 62.5382 28.0455 57.4029 28.0781Z" fill="#FE4358"/>
<path d="M39.8789 58.3418L-8.87853e-05 58.5243C3.34959 52.742 9.44708 49.2155 16.0758 49.2713L49.128 49.2082C49.1228 54.2164 44.9723 58.3814 39.8789 58.3418Z" fill="#FE4358"/>
<path d="M28.1187 43.2966L8.78284 43.3487C12.0904 37.6393 18.1873 34.113 24.8574 34.0965L37.3366 34.0499C37.2895 39.13 33.1813 43.2223 28.1187 43.2966Z" fill="#FE4358"/>
<path d="M71.465 44.032C71.7927 45.7156 72.5613 47.0222 73.771 47.952C75.0059 48.8817 76.518 49.3466 78.3074 49.3466C80.8024 49.3466 82.6169 48.4294 83.751 46.5951L86.5484 48.1781C84.7087 51.0176 81.9365 52.4373 78.2318 52.4373C75.2327 52.4373 72.7882 51.5076 70.898 49.6481C69.0331 47.7635 68.1006 45.3889 68.1006 42.5243C68.1006 39.6849 69.0205 37.3229 70.8602 35.4383C72.6999 33.5537 75.0815 32.6114 78.005 32.6114C80.7772 32.6114 83.0328 33.5914 84.7717 35.5513C86.5358 37.4862 87.4179 39.8231 87.4179 42.562C87.4179 43.0395 87.3801 43.5295 87.3045 44.032H71.465ZM78.005 35.7021C76.2408 35.7021 74.7791 36.2047 73.6198 37.2098C72.4605 38.1898 71.7423 39.509 71.465 41.1674H84.0912C83.814 39.3834 83.1084 38.0264 81.9743 37.0967C80.8402 36.167 79.5171 35.7021 78.005 35.7021Z" fill="white"/>
<path d="M100.045 52.4373C97.1974 52.4373 94.8285 51.495 92.9383 49.6104C91.0482 47.7007 90.1031 45.3387 90.1031 42.5243C90.1031 39.71 91.0482 37.3606 92.9383 35.476C94.8285 33.5662 97.1974 32.6114 100.045 32.6114C101.91 32.6114 103.586 33.0637 105.073 33.9683C106.56 34.8478 107.669 36.0413 108.4 37.549L105.64 39.1321C105.161 38.127 104.418 37.3229 103.41 36.7198C102.427 36.1167 101.305 35.8152 100.045 35.8152C98.1551 35.8152 96.5674 36.4559 95.2821 37.7375C94.022 39.019 93.3919 40.6146 93.3919 42.5243C93.3919 44.4089 94.022 45.992 95.2821 47.2735C96.5674 48.555 98.1551 49.1958 100.045 49.1958C101.305 49.1958 102.439 48.9068 103.448 48.3289C104.456 47.7258 105.224 46.9217 105.754 45.9166L108.551 47.5374C107.744 49.0199 106.585 50.2135 105.073 51.1181C103.561 51.9976 101.885 52.4373 100.045 52.4373Z" fill="white"/>
<path d="M121.211 32.6114C123.429 32.6114 125.206 33.315 126.541 34.7221C127.877 36.1042 128.545 37.9888 128.545 40.3759V51.9473H125.256V40.5644C125.256 39.0316 124.84 37.8505 124.009 37.0213C123.177 36.167 122.03 35.7398 120.568 35.7398C118.93 35.7398 117.607 36.2549 116.599 37.2852C115.591 38.2903 115.087 39.8482 115.087 41.959V51.9473H111.798V25.563H115.087V35.8152C116.423 33.6793 118.464 32.6114 121.211 32.6114Z" fill="white"/>
<path d="M149.089 49.5727C147.148 51.4825 144.792 52.4373 142.02 52.4373C139.248 52.4373 136.891 51.4825 134.951 49.5727C133.035 47.663 132.078 45.3135 132.078 42.5243C132.078 39.7351 133.035 37.3857 134.951 35.476C136.891 33.5662 139.248 32.6114 142.02 32.6114C144.792 32.6114 147.148 33.5662 149.089 35.476C151.03 37.3857 152 39.7351 152 42.5243C152 45.3135 151.03 47.663 149.089 49.5727ZM142.02 49.2335C143.91 49.2335 145.498 48.5927 146.783 47.3112C148.068 46.0297 148.711 44.4341 148.711 42.5243C148.711 40.6146 148.068 39.019 146.783 37.7375C145.498 36.4559 143.91 35.8152 142.02 35.8152C140.155 35.8152 138.58 36.4559 137.294 37.7375C136.009 39.019 135.367 40.6146 135.367 42.5243C135.367 44.4341 136.009 46.0297 137.294 47.3112C138.58 48.5927 140.155 49.2335 142.02 49.2335Z" fill="white"/>
</svg>
