<svg width="124" height="64" viewBox="0 0 124 64" fill="none" xmlns="http://www.w3.org/2000/svg">
<path d="M46.9147 23.1035L14.5286 23.1702C17.2144 18.5182 22.1694 15.6475 27.5924 15.6379L54.4036 15.5718C54.4272 19.7466 51.0895 23.0799 46.9147 23.1035Z" fill="#7817F2"/>
<path d="M32.6698 47.7762L0.249837 47.9017C2.96962 43.1909 7.9246 40.3202 13.3136 40.3695L40.1837 40.3373C40.1824 44.4193 36.8107 47.8115 32.6698 47.7762Z" fill="#7817F2"/>
<path d="M23.1102 35.5047L7.38951 35.5359C10.0753 30.884 15.0303 28.0133 20.4532 28.0037L30.5992 27.973C30.5639 32.1138 27.2262 35.4472 23.1102 35.5047Z" fill="#7817F2"/>
<path d="M58.3413 36.1023C58.6076 37.4748 59.2324 38.5401 60.2157 39.298C61.2195 40.056 62.4487 40.435 63.9032 40.435C65.9312 40.435 67.4062 39.6873 68.3281 38.1918L70.602 39.4824C69.1065 41.7973 66.8531 42.9547 63.8417 42.9547C61.4039 42.9547 59.4168 42.1968 57.8804 40.6808C56.3644 39.1444 55.6064 37.2085 55.6064 34.8731C55.6064 32.5582 56.3542 30.6326 57.8496 29.0961C59.3451 27.5597 61.281 26.7915 63.6573 26.7915C65.9108 26.7915 67.7442 27.5904 69.1577 29.1883C70.5917 30.7657 71.3087 32.6709 71.3087 34.9038C71.3087 35.2931 71.278 35.6925 71.2166 36.1023H58.3413ZM63.6573 29.3112C62.2233 29.3112 61.0352 29.721 60.0928 30.5404C59.1505 31.3393 58.5666 32.4148 58.3413 33.7669H68.6046C68.3793 32.3124 67.8057 31.2062 66.8838 30.4482C65.962 29.6902 64.8865 29.3112 63.6573 29.3112Z" fill="white"/>
<path d="M81.573 42.9547C79.2582 42.9547 77.3325 42.1865 75.7961 40.6501C74.2596 39.0932 73.4914 37.1675 73.4914 34.8731C73.4914 32.5787 74.2596 30.6633 75.7961 29.1269C77.3325 27.57 79.2582 26.7915 81.573 26.7915C83.089 26.7915 84.4513 27.1602 85.6599 27.8977C86.8686 28.6147 87.77 29.5878 88.3641 30.8169L86.1209 32.1075C85.7316 31.2881 85.1273 30.6326 84.3079 30.1409C83.5089 29.6493 82.5973 29.4034 81.573 29.4034C80.0366 29.4034 78.746 29.9258 77.7012 30.9706C76.677 32.0154 76.1648 33.3162 76.1648 34.8731C76.1648 36.4095 76.677 37.7001 77.7012 38.7449C78.746 39.7897 80.0366 40.3121 81.573 40.3121C82.5973 40.3121 83.5192 40.0765 84.3386 39.6053C85.158 39.1137 85.7829 38.4581 86.2131 37.6387L88.487 38.96C87.8314 40.1687 86.8891 41.1417 85.6599 41.8792C84.4308 42.5962 83.0685 42.9547 81.573 42.9547Z" fill="white"/>
<path d="M98.7779 26.7915C100.581 26.7915 102.025 27.3651 103.111 28.5123C104.196 29.639 104.739 31.1754 104.739 33.1216V42.5553H102.066V33.2752C102.066 32.0256 101.728 31.0628 101.052 30.3867C100.376 29.6902 99.4437 29.342 98.2555 29.342C96.924 29.342 95.8485 29.7619 95.029 30.6018C94.2096 31.4213 93.7999 32.6914 93.7999 34.4122V42.5553H91.1265V21.0453H93.7999V29.4034C94.8856 27.6621 96.545 26.7915 98.7779 26.7915Z" fill="white"/>
<path d="M121.439 40.6194C119.861 42.1763 117.946 42.9547 115.693 42.9547C113.439 42.9547 111.524 42.1763 109.946 40.6194C108.389 39.0624 107.611 37.147 107.611 34.8731C107.611 32.5992 108.389 30.6838 109.946 29.1269C111.524 27.57 113.439 26.7915 115.693 26.7915C117.946 26.7915 119.861 27.57 121.439 29.1269C123.016 30.6838 123.805 32.5992 123.805 34.8731C123.805 37.147 123.016 39.0624 121.439 40.6194ZM115.693 40.3428C117.229 40.3428 118.52 39.8204 119.564 38.7756C120.609 37.7309 121.132 36.43 121.132 34.8731C121.132 33.3162 120.609 32.0154 119.564 30.9706C118.52 29.9258 117.229 29.4034 115.693 29.4034C114.177 29.4034 112.896 29.9258 111.851 30.9706C110.807 32.0154 110.284 33.3162 110.284 34.8731C110.284 36.43 110.807 37.7309 111.851 38.7756C112.896 39.8204 114.177 40.3428 115.693 40.3428Z" fill="white"/>
</svg>
